<svg width="16" height="16" viewBox="0 0 16 16" fill="none" xmlns="http://www.w3.org/2000/svg">
<circle cx="8" cy="8" r="7.5" fill="#0D0D0D" stroke="#4E1F10"/>
<circle cx="8" cy="8" r="6" fill="url(#paint0_linear_1_647)"/>
<path d="M8.74927 7.00037V7.25037H8.99927H10.9993C11.1982 7.25037 11.3889 7.32938 11.5296 7.47004C11.6702 7.61069 11.7493 7.80145 11.7493 8.00037C11.7493 8.19928 11.6702 8.39004 11.5296 8.5307C11.3894 8.67087 11.1995 8.74982 11.0013 8.75036L9.0037 8.71491L8.74927 8.71039V8.96487V11.0004C8.74927 11.1993 8.67025 11.39 8.5296 11.5307C8.38895 11.6713 8.19818 11.7504 7.99927 11.7504C7.80036 11.7504 7.60959 11.6713 7.46894 11.5307C7.32876 11.3905 7.24981 11.2006 7.24927 11.0024L7.28473 8.96923L7.28924 8.71039L7.03041 8.7149L4.99725 8.75036C4.79907 8.74983 4.60911 8.67087 4.46894 8.5307C4.32829 8.39004 4.24927 8.19928 4.24927 8.00037C4.24927 7.80145 4.32829 7.61069 4.46894 7.47004C4.60959 7.32938 4.80036 7.25037 4.99927 7.25037H7.03477H7.28924L7.28473 6.99593L7.24927 4.99831C7.24981 4.80014 7.32877 4.6102 7.46894 4.47004C7.60959 4.32938 7.80036 4.25037 7.99927 4.25037C8.19818 4.25037 8.38895 4.32938 8.5296 4.47004C8.67025 4.61069 8.74927 4.80145 8.74927 5.00037V7.00037Z" fill="#0D0D0D" stroke="#4E1F10" stroke-width="0.5"/>
<defs>
<linearGradient id="paint0_linear_1_647" x1="8" y1="2" x2="8" y2="26" gradientUnits="userSpaceOnUse">
<stop stop-color="#541F0E"/>
<stop offset="1" stop-color="#FFDCD9"/>
</linearGradient>
</defs>
</svg>
