<svg width="16" height="16" viewBox="0 0 16 16" fill="none" xmlns="http://www.w3.org/2000/svg">
<circle cx="8" cy="8" r="7.5" fill="#0D0D0D" stroke="#251248"/>
<circle cx="8" cy="8" r="6" fill="url(#paint0_linear_1_488)"/>
<path d="M8.74925 7.00037V7.25037H8.99925H10.9993C11.1982 7.25037 11.3889 7.32938 11.5296 7.47004C11.6702 7.61069 11.7493 7.80145 11.7493 8.00037C11.7493 8.19928 11.6702 8.39004 11.5296 8.5307C11.3894 8.67087 11.1995 8.74982 11.0013 8.75036L9.00369 8.71491L8.74925 8.71039V8.96487V11.0004C8.74925 11.1993 8.67023 11.39 8.52958 11.5307C8.38893 11.6713 8.19816 11.7504 7.99925 11.7504C7.80034 11.7504 7.60958 11.6713 7.46892 11.5307C7.32875 11.3905 7.24979 11.2006 7.24925 11.0024L7.28471 8.96923L7.28923 8.71039L7.03039 8.7149L4.99724 8.75036C4.79905 8.74983 4.6091 8.67087 4.46892 8.5307C4.32827 8.39004 4.24925 8.19928 4.24925 8.00037C4.24925 7.80145 4.32827 7.61069 4.46892 7.47004C4.60957 7.32938 4.80034 7.25037 4.99925 7.25037H7.03475H7.28923L7.28471 6.99593L7.24926 4.99831C7.2498 4.80014 7.32876 4.6102 7.46892 4.47004C7.60957 4.32938 7.80034 4.25037 7.99925 4.25037C8.19816 4.25037 8.38893 4.32938 8.52958 4.47004C8.67023 4.61069 8.74925 4.80145 8.74925 5.00037V7.00037Z" fill="#0D0D0D" stroke="#251248" stroke-width="0.5"/>
<defs>
<linearGradient id="paint0_linear_1_488" x1="8" y1="2" x2="8" y2="26" gradientUnits="userSpaceOnUse">
<stop stop-color="#321344"/>
<stop offset="1" stop-color="#D97FFF"/>
</linearGradient>
</defs>
</svg>
