<svg width="13" height="14" viewBox="0 0 13 14" fill="none" xmlns="http://www.w3.org/2000/svg">
<path d="M2.7788 7.90001C3.8016 7.90001 4.6332 8.74121 4.6332 9.77521C4.6332 10.8092 3.8016 11.6504 2.7788 11.6504C1.8812 11.6504 1.1316 11.002 0.961601 10.144C0.937729 10.0926 0.925179 10.0367 0.924802 9.98001V1.25001C0.924856 1.19041 0.938227 1.13158 0.963934 1.07782C0.989642 1.02406 1.02704 0.976715 1.07339 0.939259C1.11974 0.901802 1.17387 0.875175 1.23184 0.861325C1.2898 0.847475 1.35012 0.846751 1.4084 0.859206L8.9 2.45921C8.98955 2.47834 9.06982 2.52763 9.12741 2.59883C9.185 2.67003 9.21641 2.75883 9.2164 2.85041V10.236C9.52477 10.0179 9.89311 9.90068 10.2708 9.90041C11.2932 9.90041 12.1248 10.7416 12.1248 11.7756C12.1248 12.8096 11.2932 13.6508 10.2708 13.6508C9.248 13.6508 8.4164 12.8096 8.4164 11.7756C8.4164 11.7308 8.4264 11.6888 8.4296 11.6452C8.426 11.6232 8.4164 11.6036 8.4164 11.5804V5.57361L1.7248 4.14441V8.23601C2.03295 8.01774 2.40118 7.90035 2.7788 7.90001ZM2.7788 10.85C3.36 10.85 3.8332 10.3676 3.8332 9.77481C3.8332 9.18201 3.36 8.69961 2.7788 8.69961C2.1976 8.69961 1.7248 9.18201 1.7248 9.77481C1.7248 10.3676 2.1976 10.85 2.7788 10.85ZM10.2712 12.85C10.8524 12.85 11.3252 12.3676 11.3252 11.7748C11.3252 11.182 10.8524 10.6996 10.2712 10.6996C9.69 10.6996 9.2168 11.182 9.2168 11.7748C9.2168 12.3676 9.69 12.85 10.2712 12.85ZM8.4168 4.75561V3.17321L1.7252 1.74441V3.32641L8.4168 4.75561Z" fill="white"/>
</svg>
